<svg width="28" height="28" viewBox="0 0 28 28" fill="none" xmlns="http://www.w3.org/2000/svg">
<g clip-path="url(#clip0_393_3543)">
<path d="M14.4375 14H4.8125C4.69647 14 4.58519 13.9539 4.50314 13.8719C4.42109 13.7898 4.375 13.6785 4.375 13.5625C4.375 13.4465 4.42109 13.3352 4.50314 13.2531C4.58519 13.1711 4.69647 13.125 4.8125 13.125H14.4375C14.5535 13.125 14.6648 13.1711 14.7469 13.2531C14.8289 13.3352 14.875 13.4465 14.875 13.5625C14.875 13.6785 14.8289 13.7898 14.7469 13.8719C14.6648 13.9539 14.5535 14 14.4375 14Z" fill="white"/>
<path d="M2.625 14H1.3125C1.19647 14 1.08519 13.9539 1.00314 13.8719C0.921094 13.7898 0.875 13.6785 0.875 13.5625C0.875 13.4465 0.921094 13.3352 1.00314 13.2531C1.08519 13.1711 1.19647 13.125 1.3125 13.125H2.625C2.74103 13.125 2.85231 13.1711 2.93436 13.2531C3.01641 13.3352 3.0625 13.4465 3.0625 13.5625C3.0625 13.6785 3.01641 13.7898 2.93436 13.8719C2.85231 13.9539 2.74103 14 2.625 14Z" fill="white"/>
<path d="M14.4375 14C14.3215 14 14.2102 13.9539 14.1281 13.8719C14.0461 13.7898 14 13.6785 14 13.5625C14 13.4465 14.0461 13.3352 14.1281 13.2531C14.2102 13.1711 14.3215 13.125 14.4375 13.125C14.7836 13.125 15.122 13.0224 15.4097 12.8301C15.6975 12.6378 15.9218 12.3645 16.0543 12.0447C16.1867 11.7249 16.2214 11.3731 16.1539 11.0336C16.0864 10.6941 15.9197 10.3823 15.6749 10.1376C15.4302 9.89282 15.1184 9.72615 14.7789 9.65863C14.4394 9.5911 14.0876 9.62576 13.7678 9.75821C13.448 9.89067 13.1747 10.115 12.9824 10.4028C12.7901 10.6905 12.6875 11.0289 12.6875 11.375C12.6875 11.491 12.6414 11.6023 12.5594 11.6844C12.4773 11.7664 12.366 11.8125 12.25 11.8125C12.134 11.8125 12.0227 11.7664 11.9406 11.6844C11.8586 11.6023 11.8125 11.491 11.8125 11.375C11.8125 10.8558 11.9665 10.3483 12.2549 9.91663C12.5433 9.48495 12.9533 9.1485 13.433 8.94982C13.9126 8.75114 14.4404 8.69915 14.9496 8.80044C15.4588 8.90173 15.9265 9.15173 16.2937 9.51885C16.6608 9.88596 16.9108 10.3537 17.0121 10.8629C17.1133 11.3721 17.0614 11.8999 16.8627 12.3795C16.664 12.8592 16.3276 13.2692 15.8959 13.5576C15.4642 13.846 14.9567 14 14.4375 14Z" fill="white"/>
<path d="M22.75 21.4375H15.75C15.634 21.4375 15.5227 21.3914 15.4406 21.3094C15.3586 21.2273 15.3125 21.116 15.3125 21C15.3125 20.884 15.3586 20.7727 15.4406 20.6906C15.5227 20.6086 15.634 20.5625 15.75 20.5625H22.75C22.866 20.5625 22.9773 20.6086 23.0594 20.6906C23.1414 20.7727 23.1875 20.884 23.1875 21C23.1875 21.116 23.1414 21.2273 23.0594 21.3094C22.9773 21.3914 22.866 21.4375 22.75 21.4375Z" fill="white"/>
<path d="M22.75 25.8125C22.054 25.8118 21.3867 25.535 20.8946 25.0429C20.4025 24.5508 20.1257 23.8835 20.125 23.1875C20.125 23.0715 20.1711 22.9602 20.2531 22.8781C20.3352 22.7961 20.4465 22.75 20.5625 22.75C20.6785 22.75 20.7898 22.7961 20.8719 22.8781C20.9539 22.9602 21 23.0715 21 23.1875C21 23.5336 21.1026 23.872 21.2949 24.1597C21.4872 24.4475 21.7605 24.6718 22.0803 24.8043C22.4001 24.9367 22.7519 24.9714 23.0914 24.9039C23.4309 24.8364 23.7427 24.6697 23.9874 24.4249C24.2322 24.1802 24.3989 23.8684 24.4664 23.5289C24.5339 23.1894 24.4992 22.8376 24.3668 22.5178C24.2343 22.198 24.01 21.9247 23.7222 21.7324C23.4345 21.5401 23.0961 21.4375 22.75 21.4375C22.634 21.4375 22.5227 21.3914 22.4406 21.3094C22.3586 21.2273 22.3125 21.116 22.3125 21C22.3125 20.884 22.3586 20.7727 22.4406 20.6906C22.5227 20.6086 22.634 20.5625 22.75 20.5625C23.4462 20.5625 24.1139 20.8391 24.6062 21.3313C25.0984 21.8236 25.375 22.4913 25.375 23.1875C25.375 23.8837 25.0984 24.5514 24.6062 25.0437C24.1139 25.5359 23.4462 25.8125 22.75 25.8125Z" fill="white"/>
<path d="M23.625 6.125H16.625C16.509 6.125 16.3977 6.07891 16.3156 5.99686C16.2336 5.91481 16.1875 5.80353 16.1875 5.6875C16.1875 5.57147 16.2336 5.46019 16.3156 5.37814C16.3977 5.29609 16.509 5.25 16.625 5.25H23.625C23.741 5.25 23.8523 5.29609 23.9344 5.37814C24.0164 5.46019 24.0625 5.57147 24.0625 5.6875C24.0625 5.80353 24.0164 5.91481 23.9344 5.99686C23.8523 6.07891 23.741 6.125 23.625 6.125Z" fill="white"/>
<path d="M23.625 6.125C23.509 6.125 23.3977 6.07891 23.3156 5.99686C23.2336 5.91481 23.1875 5.80353 23.1875 5.6875C23.1875 5.57147 23.2336 5.46019 23.3156 5.37814C23.3977 5.29609 23.509 5.25 23.625 5.25C23.9711 5.25 24.3095 5.14737 24.5972 4.95507C24.885 4.76278 25.1093 4.48947 25.2418 4.1697C25.3742 3.84993 25.4089 3.49806 25.3414 3.15859C25.2739 2.81913 25.1072 2.50731 24.8624 2.26256C24.6177 2.01782 24.3059 1.85115 23.9664 1.78363C23.6269 1.7161 23.2751 1.75076 22.9553 1.88321C22.6355 2.01567 22.3622 2.23997 22.1699 2.52775C21.9776 2.81554 21.875 3.15388 21.875 3.5C21.875 3.61603 21.8289 3.72731 21.7469 3.80936C21.6648 3.89141 21.5535 3.9375 21.4375 3.9375C21.3215 3.9375 21.2102 3.89141 21.1281 3.80936C21.0461 3.72731 21 3.61603 21 3.5C21 2.98083 21.154 2.47331 21.4424 2.04163C21.7308 1.60995 22.1408 1.2735 22.6205 1.07482C23.1001 0.876137 23.6279 0.824154 24.1371 0.92544C24.6463 1.02673 25.114 1.27673 25.4812 1.64385C25.8483 2.01096 26.0983 2.47869 26.1996 2.98789C26.3008 3.49709 26.2489 4.02489 26.0502 4.50455C25.8515 4.9842 25.5151 5.39417 25.0834 5.68261C24.6517 5.97105 24.1442 6.125 23.625 6.125Z" fill="white"/>
<path d="M10.0625 16.1875H2.625C2.50897 16.1875 2.39769 16.1414 2.31564 16.0594C2.23359 15.9773 2.1875 15.866 2.1875 15.75C2.1875 15.634 2.23359 15.5227 2.31564 15.4406C2.39769 15.3586 2.50897 15.3125 2.625 15.3125H10.0625C10.1785 15.3125 10.2898 15.3586 10.3719 15.4406C10.4539 15.5227 10.5 15.634 10.5 15.75C10.5 15.866 10.4539 15.9773 10.3719 16.0594C10.2898 16.1414 10.1785 16.1875 10.0625 16.1875Z" fill="white"/>
<g clip-path="url(#clip1_393_3543)">
<path d="M5.82848 19.1448L6.52766 19.5345L6.61887 19.53L6.90828 18.5839L7.28558 19.5018L7.37775 19.4925L8.0366 19.0361L7.79662 20.4537L9.56256 18.629L9.61269 19.9122L9.69492 20.0352L11.2528 19.6444L10.2973 20.9313L10.3796 21.0542L11.5469 21.5945L9.11871 22.5527L10.6199 22.8958L9.9449 23.3326L9.90592 23.4152L10.6097 24.1169L9.62471 24.023L9.58574 24.1056L9.67884 24.9006L7.996 23.9682L7.65813 24.4506L5.97744 23.1724L5.40297 21.08L5.97894 21.0476L5.82848 19.1448Z" stroke="white" stroke-width="0.7" stroke-linecap="round" stroke-linejoin="round"/>
<path d="M8.2605 21.6496L5.29521 23.6327" stroke="white" stroke-width="0.7" stroke-linecap="round" stroke-linejoin="round"/>
<path d="M8.18468 23.0192L7.11863 22.4112" stroke="white" stroke-width="0.7" stroke-linecap="round" stroke-linejoin="round"/>
<path d="M6.96407 21.1916L7.11884 22.409" stroke="white" stroke-width="0.7" stroke-linecap="round" stroke-linejoin="round"/>
</g>
<g clip-path="url(#clip2_393_3543)">
<path d="M22.311 10.7261L22.8128 11.243L22.8925 11.2628L23.387 10.5222L23.4745 11.4111L23.5564 11.4269L24.2424 11.2042L23.6685 12.364L25.6632 11.2485L25.374 12.3675L25.4131 12.4948L26.857 12.5614L25.7003 13.4232L25.7393 13.5505L26.6055 14.3185L24.2645 14.5155L25.4696 15.2001L24.7746 15.4017L24.7196 15.4628L25.1445 16.2499L24.3198 15.9139L24.2649 15.975L24.1392 16.6843L22.9302 15.4448L22.514 15.7731L21.3964 14.2361L21.4431 12.2839L21.948 12.4051L22.311 10.7261Z" stroke="white" stroke-width="0.63" stroke-linecap="round" stroke-linejoin="round"/>
<path d="M23.7587 13.5148L20.6892 14.4562" stroke="white" stroke-width="0.63" stroke-linecap="round" stroke-linejoin="round"/>
<path d="M23.3387 14.6757L22.5773 13.8755" stroke="white" stroke-width="0.63" stroke-linecap="round" stroke-linejoin="round"/>
<path d="M22.7596 12.7843L22.5777 13.8737" stroke="white" stroke-width="0.63" stroke-linecap="round" stroke-linejoin="round"/>
</g>
<g clip-path="url(#clip3_393_3543)">
<path d="M6.68127 5.94934L6.75395 6.57749L6.7989 6.63392L7.53917 6.383L7.12461 7.04844L7.17309 7.10326L7.76969 7.31524L6.74989 7.81537L8.73481 8.10598L7.93501 8.73016L7.8941 8.83962L8.86343 9.65835L7.59738 9.63936L7.55647 9.74882L7.74853 10.7467L6.01381 9.63157L6.48637 10.7526L5.89482 10.5212L5.82388 10.5343L5.69857 11.3094L5.30436 10.6344L5.23342 10.6475L4.76655 11.074L4.5881 9.56465L4.12287 9.57054L4.16717 7.90302L5.24391 6.5693L5.53045 6.9237L6.68127 5.94934Z" stroke="white" stroke-width="0.553" stroke-linecap="round" stroke-linejoin="round"/>
<path d="M6.19714 8.66458L3.55735 7.6779" stroke="white" stroke-width="0.553" stroke-linecap="round" stroke-linejoin="round"/>
<path d="M5.28385 9.2478L5.18193 8.28365" stroke="white" stroke-width="0.553" stroke-linecap="round" stroke-linejoin="round"/>
<path d="M5.89261 7.62182L5.18328 8.28275" stroke="white" stroke-width="0.553" stroke-linecap="round" stroke-linejoin="round"/>
</g>
<g clip-path="url(#clip4_393_3543)">
<path d="M9.42688 2.71344L9.98384 2.86155L10.0467 2.84227L10.0811 2.13072L10.507 2.70447L10.5697 2.68165L10.9486 2.2465L11.0322 3.27831L11.9414 1.69208L12.2037 2.57874L12.2829 2.64998L13.3008 2.10134L12.862 3.16864L12.9412 3.23988L13.8515 3.41019L12.3267 4.50895L13.4351 4.48252L13.0414 4.90691L13.0288 4.97145L13.6442 5.33649L12.9402 5.44543L12.9276 5.50996L13.1334 6.04828L11.7939 5.69565L11.6435 6.09214L10.2442 5.4978L9.4727 4.13937L9.86891 4.0147L9.42688 2.71344Z" stroke="white" stroke-width="0.504" stroke-linecap="round" stroke-linejoin="round"/>
<path d="M11.568 4.03073L9.84984 5.9399" stroke="white" stroke-width="0.504" stroke-linecap="round" stroke-linejoin="round"/>
<path d="M11.7576 5L10.906 4.7645" stroke="white" stroke-width="0.504" stroke-linecap="round" stroke-linejoin="round"/>
<path d="M10.582 3.94064L10.9056 4.76286" stroke="white" stroke-width="0.504" stroke-linecap="round" stroke-linejoin="round"/>
</g>
</g>
<defs>
<clipPath id="clip0_393_3543">
<rect width="28" height="28" fill="white"/>
</clipPath>
<clipPath id="clip1_393_3543">
<rect width="7.875" height="7.875" fill="white" transform="matrix(-0.980865 -0.194689 -0.194689 0.980865 12.864 18.7022)"/>
</clipPath>
<clipPath id="clip2_393_3543">
<rect width="7.0875" height="7.0875" fill="white" transform="matrix(-0.883361 -0.468694 -0.468694 0.883361 28.49 12.1667)"/>
</clipPath>
<clipPath id="clip3_393_3543">
<rect width="6.22125" height="6.22125" fill="white" transform="matrix(-0.414783 -0.90992 -0.90992 0.414783 10.2117 10.2563)"/>
</clipPath>
<clipPath id="clip4_393_3543">
<rect width="5.67" height="5.67" fill="white" transform="matrix(-0.998616 0.0525886 0.0525886 0.998616 14.2587 1.15895)"/>
</clipPath>
</defs>
</svg>
