<svg width="26" height="25" viewBox="0 0 26 25" fill="none" xmlns="http://www.w3.org/2000/svg">
<g id="Frame 16263">
<path id="Vector 1" d="M4.875 8.5L1.97294 5.9724C1.35482 5.43404 1 4.65447 1 3.83476V3.83476C1 2.26917 2.26917 1 3.83476 1H22.2277C23.7588 1 25 2.24122 25 3.77234V3.77234C25 4.62602 24.6067 5.43209 23.9339 5.95747L17.3098 11.1297C16.3982 11.8414 15.8394 12.9129 15.7773 14.0677L15.3693 21.6565C15.3024 22.9006 14.2741 23.875 13.0283 23.875V23.875C11.8106 23.875 10.7957 22.9428 10.6924 21.7295L10.375 18" stroke="#FAFAFA" stroke-opacity="0.8" stroke-width="1.25" stroke-linecap="round"/>
<path id="Line 1" d="M6.875 19.8749L6.875 9.87494" stroke="#FAFAFA" stroke-opacity="0.8" stroke-width="1.25" stroke-linecap="round"/>
<path id="Line 2" d="M2.5 14.8749H11.5" stroke="#FAFAFA" stroke-opacity="0.8" stroke-width="1.25" stroke-linecap="round"/>
</g>
</svg>
