<svg width="28" height="28" viewBox="0 0 28 28" fill="none" xmlns="http://www.w3.org/2000/svg">
<path d="M11.3695 20.5529C11.3695 20.5529 12.9527 20.1723 13.9351 21.4707C13.9351 21.4707 13.8802 19.6697 15.7551 19.1472C15.7551 19.1472 16.4497 20.6804 15.5663 21.8132C15.5663 21.8132 17.0011 21.4387 17.8453 22.5379C17.8453 22.5379 17.3036 23.8427 15.5053 23.507C15.5053 23.507 16.3515 25.1111 15.6022 26.3393C15.6022 26.3393 14.3944 25.8946 13.8505 24.4111C13.8505 24.4111 13.1543 25.5734 11.7905 25.4059C11.7905 25.4059 11.3215 23.5694 13.0766 22.8473C13.0766 22.8477 11.1543 22.5694 11.3695 20.5529Z" fill="white"/>
<path d="M4.31711 2.97796C4.2924 3.76435 4.4324 5.03291 5.44534 5.80876C5.44534 5.80876 4.25502 5.73365 3.2676 7.19229C3.21773 7.26747 3.18425 7.35231 3.16935 7.44128C3.15444 7.53026 3.15845 7.62138 3.18111 7.7087C3.20376 7.79603 3.24456 7.8776 3.30084 7.94811C3.35711 8.01862 3.42761 8.07649 3.50775 8.11794C4.2308 8.49676 5.5613 8.94147 7.02422 8.18382C7.0004 8.78192 7.12864 9.3763 7.39696 9.91137C7.66527 10.4464 8.06489 10.9047 8.55845 11.2434C8.69733 11.3398 8.86866 11.3775 9.03519 11.3484C9.20173 11.3192 9.35003 11.2255 9.44786 11.0876C9.88293 10.4685 10.4121 9.26058 9.46985 7.75657C9.46985 7.75657 11.0251 8.3673 12.3872 7.5287C12.468 7.47837 12.5366 7.41066 12.5879 7.33048C12.6392 7.25031 12.672 7.1597 12.6839 7.06526C12.6958 6.97081 12.6864 6.8749 12.6566 6.78452C12.6267 6.69413 12.577 6.61154 12.5112 6.54277C12.0162 6.02889 11.0511 5.35088 9.43691 5.41297C9.85009 4.99686 10.1564 4.48688 10.3295 3.92664C10.5027 3.36639 10.5377 2.77254 10.4314 2.19585C10.4158 2.1055 10.381 2.01953 10.3295 1.94369C10.2779 1.86785 10.2108 1.80389 10.1325 1.75608C10.0543 1.70827 9.96673 1.67771 9.87573 1.66645C9.78472 1.65519 9.69237 1.66349 9.60483 1.69078C8.87559 1.92376 7.76103 2.54577 7.45772 4.1925C7.45772 4.1925 6.63856 2.7776 5.12952 2.38074C5.03599 2.35539 4.93795 2.35146 4.84269 2.36925C4.74743 2.38704 4.65741 2.42608 4.57933 2.48348C4.50125 2.54088 4.43712 2.61515 4.39172 2.70076C4.34632 2.78637 4.32082 2.88113 4.31711 2.97796Z" fill="white"/>
<path d="M5.87853 13.1577C5.87853 13.1577 7.86785 13.3851 8.29419 15.4883C8.29419 15.4883 8.0384 13.4144 11.2498 13.0304C11.2498 13.0304 11.7898 15.2325 9.62987 16.5114C9.62987 16.5114 11.5413 16.0567 12.6886 17.9609C12.6886 17.9609 11.8182 19.1545 9.65804 18.5577C9.65804 18.5577 10.0276 20.2344 8.83393 21.3143C8.83393 21.3143 7.015 20.9449 7.46976 18.2735C7.46976 18.2735 5.56559 19.3534 3.97412 17.7903C3.97412 17.7903 4.57093 16.1704 6.95818 16.3977C6.95884 16.3975 4.99752 15.7439 5.87853 13.1577Z" fill="white"/>
<path d="M18.6644 20.5541C18.6644 20.5541 20.1969 19.7699 21.5287 20.8602C21.5287 20.8602 21.0252 19.0232 22.8217 18.0206C22.8217 18.0206 23.9161 19.4237 23.2897 20.807C23.2897 20.807 24.671 20.0659 25.8115 20.9862C25.8115 20.9862 25.5789 22.4614 23.6476 22.5631C23.6476 22.5631 24.9154 24.0013 24.4505 25.4494C24.4505 25.4494 23.0988 25.2924 22.1717 23.9029C22.1717 23.9029 21.6975 25.3806 20.13 25.4494C20.13 25.4494 19.2817 23.7207 20.9062 22.5424C20.9066 22.5428 18.944 22.68 18.6644 20.5541Z" fill="white"/>
<path d="M14.1205 14.0664C14.1205 14.0664 16.0649 13.682 17.1953 15.3099C17.1953 15.3099 17.218 13.1168 19.5241 12.5742C19.5241 12.5742 20.2928 14.4734 19.1623 15.8072C19.1623 15.8072 20.9258 15.4229 21.898 16.8021C21.898 16.8021 21.1745 18.3621 19.004 17.8644C19.004 17.8644 19.9537 19.8573 18.9815 21.3139C18.9815 21.3139 17.5345 20.7132 16.9466 18.8819C16.9466 18.8819 16.0423 20.261 14.3919 19.9897C14.3919 19.9897 13.8637 17.7877 16.0341 16.9963C16.0341 16.9966 13.7588 16.5081 14.1205 14.0664Z" fill="white"/>
<path d="M4.53666 22.1263C4.53666 22.1263 4.13741 24.9211 6.67553 25.1207C6.67553 25.1207 7.21733 22.9533 4.53666 22.1263Z" fill="white"/>
<path d="M16.3718 7.896C16.3718 7.896 17.427 10.7762 20.9632 8.63718C20.9629 8.63742 19.7937 6.04232 16.3718 7.896Z" fill="white"/>
<path d="M25.1264 13.3642C25.1264 13.3642 24.0427 14.2553 24.1853 15.4247C24.1853 15.4247 24.3279 16.4799 25.326 16.7936C25.326 16.7936 26.866 15.0395 25.1264 13.3642Z" fill="white"/>
<path d="M2.08198 15.8118C2.03883 15.8118 1.99611 15.8033 1.95626 15.7867C1.91641 15.7702 1.88021 15.746 1.84974 15.7154C1.83406 15.7004 1.82023 15.6835 1.80856 15.6652C1.79637 15.6474 1.78615 15.6284 1.77809 15.6084C1.76979 15.5887 1.76347 15.5683 1.75923 15.5474C1.75498 15.526 1.75274 15.5042 1.75256 15.4824C1.7526 15.4337 1.76343 15.3856 1.78428 15.3416C1.80512 15.2976 1.83546 15.2587 1.87312 15.2279C1.91077 15.197 1.9548 15.1749 2.00203 15.163C2.04927 15.1512 2.09854 15.15 2.14629 15.1595C2.16749 15.1637 2.18819 15.1701 2.20806 15.1786C2.22805 15.1865 2.24709 15.1967 2.2648 15.2089C2.28316 15.2206 2.30006 15.2344 2.31512 15.2501C2.36096 15.2962 2.39213 15.3549 2.4047 15.4187C2.41726 15.4825 2.41067 15.5486 2.38574 15.6087C2.36081 15.6687 2.31866 15.72 2.2646 15.7562C2.21055 15.7923 2.147 15.8117 2.08198 15.8118Z" fill="white"/>
<path d="M12.8504 3.48436C12.763 3.48436 12.6793 3.44965 12.6175 3.38787C12.5557 3.3261 12.521 3.24231 12.521 3.15494C12.5212 3.13335 12.5234 3.11181 12.5276 3.09063C12.5319 3.06947 12.5383 3.04878 12.5466 3.02886C12.5548 3.00911 12.5647 2.9901 12.5762 2.97204C12.5885 2.95425 12.6023 2.93748 12.6173 2.92189C12.6792 2.86019 12.763 2.82555 12.8504 2.82555C12.9378 2.82555 13.0216 2.86019 13.0835 2.92189C13.0985 2.93728 13.1121 2.95407 13.1239 2.97204C13.1359 2.98994 13.1461 3.00897 13.1544 3.02886C13.171 3.06884 13.1796 3.11166 13.1798 3.15494C13.1797 3.17649 13.1775 3.19798 13.1732 3.2191C13.169 3.24027 13.1627 3.26096 13.1544 3.28086C13.1463 3.30085 13.1361 3.3199 13.1239 3.33769C13.1122 3.35581 13.0987 3.37265 13.0835 3.38792C13.0213 3.44921 12.9377 3.48382 12.8504 3.48436Z" fill="white"/>
<path d="M22.9123 7.89764C22.8907 7.8979 22.8692 7.89569 22.8481 7.89106C22.8269 7.88684 22.8062 7.8805 22.7863 7.87211C22.7665 7.86387 22.7475 7.85396 22.7294 7.84247C22.7116 7.83006 22.6948 7.81629 22.6791 7.80129C22.6639 7.78602 22.6504 7.76915 22.6388 7.75097C22.6267 7.73314 22.6165 7.7141 22.6083 7.69415C22.5999 7.67426 22.5936 7.65356 22.5894 7.63239C22.5851 7.61123 22.5829 7.58972 22.5828 7.56815C22.5833 7.48088 22.6179 7.39727 22.6791 7.33509C22.6947 7.32004 22.7115 7.30627 22.7294 7.29392C22.7474 7.28243 22.7665 7.27251 22.7863 7.26427C22.8062 7.25595 22.8269 7.24963 22.848 7.24541C22.9011 7.23502 22.956 7.23776 23.0077 7.25339C23.0595 7.26902 23.1067 7.29707 23.1452 7.33509C23.1603 7.35067 23.1741 7.36747 23.1864 7.38533C23.1982 7.40333 23.2084 7.42234 23.2169 7.44215C23.2251 7.46205 23.2311 7.48275 23.235 7.50392C23.2438 7.54629 23.2438 7.59001 23.235 7.63239C23.2312 7.65356 23.2251 7.67426 23.2169 7.69415C23.2084 7.71396 23.1982 7.73297 23.1864 7.75097C23.1743 7.769 23.1605 7.78585 23.1452 7.80129C23.0831 7.86253 22.9995 7.89711 22.9123 7.89764Z" fill="white"/>
<path d="M18.2932 25.7789C18.2716 25.7787 18.2501 25.7765 18.229 25.7723C18.2078 25.7681 18.1871 25.7618 18.1672 25.7533C18.1473 25.7451 18.1282 25.7349 18.1103 25.7229C18.0924 25.711 18.0755 25.6975 18.0601 25.6825C18.0451 25.6671 18.0316 25.6503 18.0198 25.6323C18.0077 25.6145 17.9975 25.5954 17.9894 25.5754C17.9809 25.5556 17.9745 25.5349 17.9703 25.5137C17.9615 25.4713 17.9615 25.4276 17.9703 25.3852C17.9745 25.364 17.9809 25.3433 17.9894 25.3234C17.9975 25.3035 18.0077 25.2844 18.0198 25.2666C18.0316 25.2486 18.0451 25.2318 18.0601 25.2164C18.0758 25.2014 18.0925 25.1876 18.1103 25.1752C18.1284 25.1637 18.1475 25.1538 18.1672 25.1456C18.1871 25.1371 18.2078 25.1308 18.229 25.1266C18.2821 25.1161 18.337 25.1188 18.3888 25.1344C18.4406 25.1501 18.4878 25.1782 18.5262 25.2164C18.5413 25.232 18.5551 25.2488 18.5674 25.2666C18.5792 25.2846 18.5894 25.3036 18.5979 25.3234C18.606 25.3434 18.6121 25.3641 18.616 25.3852C18.6206 25.4063 18.6229 25.4278 18.6226 25.4494C18.6226 25.4927 18.6141 25.5356 18.5976 25.5756C18.5811 25.6156 18.5568 25.6519 18.5262 25.6825C18.4956 25.7131 18.4593 25.7374 18.4193 25.7539C18.3793 25.7704 18.3364 25.7789 18.2932 25.7789Z" fill="white"/>
</svg>
