<svg width="27" height="25" viewBox="0 0 27 25" fill="none" xmlns="http://www.w3.org/2000/svg">
<path d="M1 23.7157C1.8 22.4157 3.76 20.2957 5.2 22.2157C6.64 24.1357 8.4 23.0157 9.1 22.2157C9.5 21.7157 10.54 21.0157 11.5 22.2157C12.46 23.4157 14.1 23.1157 14.8 22.8156C15.4 21.9157 16.9 20.5358 18.1 22.2157C19.3 23.8956 21 22.9157 21.7 22.2157C22.3 21.4157 23.92 20.4156 25.6 22.8156" stroke="white" stroke-width="0.6"/>
<path d="M5.5 21.0156C8.1 17.5156 14.92 12.6156 21.4 21.0156" stroke="white" stroke-width="0.6"/>
<path d="M13.6 16.2156L10.3 7.81563" stroke="white" stroke-width="0.6"/>
<path d="M17.7999 6.31559C14.6799 4.63559 13.8999 6.61558 13.8999 7.81558C10.0598 6.37555 7.8999 8.8156 7.29995 10.2156C5.13995 9.25563 3.7999 10.6156 3.39988 11.4156C2.69988 8.51564 2.73988 2.41565 8.49988 1.21565C14.2599 0.0156536 17.0999 4.11561 17.7999 6.31559Z" stroke="white" stroke-width="0.6"/>
</svg>
