<svg width="43" height="40" viewBox="0 0 43 40" fill="none" xmlns="http://www.w3.org/2000/svg">
<path d="M1 38.8595C2.33333 36.6928 5.6 33.1595 8 36.3595C10.4 39.5595 13.3333 37.6928 14.5 36.3595C15.1667 35.5262 16.9 34.3595 18.5 36.3595C20.1 38.3595 22.8333 37.8594 24 37.3594C25 35.8595 27.5 33.5596 29.5 36.3595C31.5 39.1594 34.3333 37.5261 35.5 36.3595C36.5 35.0261 39.2 33.3594 42 37.3594" stroke="white" stroke-width="1.5"/>
<path d="M8.5 34.3593C12.8333 28.5259 24.2 20.3593 35 34.3593" stroke="white" stroke-width="1.5"/>
<path d="M22 26.3594L16.5 12.3594" stroke="white" stroke-width="1.5"/>
<path d="M28.9999 9.85931C23.7999 7.05931 22.4999 10.3593 22.4999 12.3593C16.0998 9.95925 12.4999 14.026 11.5 16.3594C7.9 14.7594 5.66659 17.026 4.99988 18.3594C3.83321 13.5261 3.89988 3.35942 13.4999 1.35942C23.0999 -0.640577 27.8332 6.19268 28.9999 9.85931Z" stroke="white" stroke-width="1.5"/>
</svg>
