<svg width="40" height="40" viewBox="0 0 40 40" fill="none" xmlns="http://www.w3.org/2000/svg">
<path d="M16.907 25.3125H21.907" stroke="white" stroke-width="2" stroke-linecap="round" stroke-linejoin="round"/>
<path d="M18.157 27.4774L20.657 23.147" stroke="white" stroke-width="2" stroke-linecap="round" stroke-linejoin="round"/>
<path d="M20.657 27.4774L18.157 23.147" stroke="white" stroke-width="2" stroke-linecap="round" stroke-linejoin="round"/>
<path d="M23.696 30.0835H29.321" stroke="white" stroke-width="2" stroke-linecap="round" stroke-linejoin="round"/>
<path d="M25.1023 32.5196L27.9148 27.6477" stroke="white" stroke-width="2" stroke-linecap="round" stroke-linejoin="round"/>
<path d="M27.9148 32.5196L25.1023 27.6477" stroke="white" stroke-width="2" stroke-linecap="round" stroke-linejoin="round"/>
<path d="M12.2109 33.2781H20.0234" stroke="white" stroke-width="2" stroke-linecap="round" stroke-linejoin="round"/>
<path d="M14.1641 36.6609L18.0703 29.8953" stroke="white" stroke-width="2" stroke-linecap="round" stroke-linejoin="round"/>
<path d="M18.0703 36.6609L14.1641 29.8953" stroke="white" stroke-width="2" stroke-linecap="round" stroke-linejoin="round"/>
<path d="M12.0344 11C12.0289 11.0148 12.0227 11.0289 12.0172 11.0437C12.0117 11.0586 12.0055 11.0719 12 11.0867" stroke="white" stroke-width="2" stroke-linecap="round" stroke-linejoin="round"/>
<path d="M35.7203 15.8137C35.8656 13.2301 33.9305 10.8794 31.3672 10.52C30.5241 10.4014 29.6647 10.4954 28.8672 10.7934C28.3633 8.13091 26.5234 5.87857 24.0766 4.74107C20.6523 3.04732 16.1992 4.37545 14 7.5192" stroke="white" stroke-width="2.5" stroke-miterlimit="10" stroke-linecap="round"/>
<path d="M33 21.9547C34 21.5 35 20 35 19" stroke="white" stroke-width="2.5" stroke-miterlimit="10" stroke-linecap="round"/>
<path d="M10.0838 14C10.0146 14.5543 10.0007 15.1141 10.0424 15.6711C9.15339 15.4137 8.20215 15.4771 7.35519 15.8503C6.50823 16.2235 5.81951 16.8827 5.40959 17.7125C5.14034 18.2424 5 18.8283 5 19.4227C5 20.017 5.14034 20.603 5.40959 21.1328C5.64396 21.5234 5.87834 21.9922 6.26896 22.3047C6.56284 22.5397 6.87651 22.7488 7.20646 22.9297C7.66444 23.096 8.13459 23.2266 8.61271 23.3203C15.3315 23.3984 22.0502 23.3984 28.769 23.3203C29.1596 23.3203 29.6283 23.0859 30.0127 22.9953" stroke="white" stroke-width="2.5" stroke-miterlimit="10" stroke-linecap="round"/>
</svg>
