<svg width="28" height="28" viewBox="0 0 28 28" fill="none" xmlns="http://www.w3.org/2000/svg">
<path d="M11.835 17.7188H15.335" stroke="white" stroke-linecap="round" stroke-linejoin="round"/>
<path d="M12.71 19.2341L14.46 16.2028" stroke="white" stroke-linecap="round" stroke-linejoin="round"/>
<path d="M14.46 19.2341L12.71 16.2028" stroke="white" stroke-linecap="round" stroke-linejoin="round"/>
<path d="M16.5873 21.0585H20.5248" stroke="white" stroke-linecap="round" stroke-linejoin="round"/>
<path d="M17.5717 22.7637L19.5404 19.3534" stroke="white" stroke-linecap="round" stroke-linejoin="round"/>
<path d="M19.5404 22.7637L17.5717 19.3534" stroke="white" stroke-linecap="round" stroke-linejoin="round"/>
<path d="M8.54761 23.2947H14.0164" stroke="white" stroke-linecap="round" stroke-linejoin="round"/>
<path d="M9.91479 25.6627L12.6492 20.9267" stroke="white" stroke-linecap="round" stroke-linejoin="round"/>
<path d="M12.6492 25.6627L9.91479 20.9267" stroke="white" stroke-linecap="round" stroke-linejoin="round"/>
<path d="M8.6133 8.24742C8.60947 8.25781 8.60509 8.26766 8.60126 8.27805C8.59744 8.28844 8.59306 8.29773 8.58923 8.30812" stroke="white" stroke-linecap="round" stroke-linejoin="round"/>
<path d="M24.4929 12.8193C24.5946 11.0108 23.24 9.36523 21.4457 9.11367C20.8556 9.03064 20.254 9.09644 19.6957 9.30507C19.343 7.44132 18.0551 5.86468 16.3423 5.06843C13.9453 3.88281 10.8281 4.81249 9.2887 7.01312" stroke="white" stroke-miterlimit="10" stroke-linecap="round"/>
<path d="M23.3871 15.2162C23.6948 14.9243 23.9475 14.5794 24.133 14.198" stroke="white" stroke-miterlimit="10" stroke-linecap="round"/>
<path d="M8.24848 9.66328C8.20002 10.0513 8.19031 10.4431 8.2195 10.8331C7.59719 10.6528 6.93133 10.6972 6.33845 10.9585C5.74558 11.2197 5.26348 11.6812 4.97653 12.262C4.78806 12.6329 4.68982 13.0431 4.68982 13.4591C4.68982 13.8752 4.78806 14.2854 4.97653 14.6563C5.14059 14.9297 5.30466 15.2578 5.57809 15.4766C5.7838 15.6411 6.00337 15.7875 6.23434 15.9141C6.55493 16.0305 6.88403 16.1219 7.21872 16.1875C11.9218 16.2422 16.625 16.2422 21.3281 16.1875C21.6015 16.1875 21.9297 16.0234 22.1987 15.96" stroke="white" stroke-miterlimit="10" stroke-linecap="round"/>
</svg>
